#!OML:ASF G:\JayActor3\Patient Classification 1\Patient 1\Session 6\male.ASF
:FULLY-SPECIFIED
:DEGREES
1685
root 10.3385 14.0055 -4.68986 60.9229 -69.9002 -22.9773
lowerback 34.9015 -1.95603 2.7178
upperback 20.8889 -3.91662 -0.111235
thorax 5.2576 -2.44946 -0.591824
lowerneck 1.09558 6.88468 0.931447
upperneck -13.166 9.46119 -0.180466
head -4.48429 4.62387 -0.614946
rclavicle -9.70069e-014 -9.18385e-014
rhumerus -8.91835 10.5171 -77.6027
rradius 71.5487
rwrist -7.26042
rhand -25.6017 -9.71953
rfingers 7.12502
rthumb 0.930432 -39.6972
lclavicle -9.70069e-014 -9.18385e-014
lhumerus 55.281 8.40536 43.8551
lradius 38.8212
lwrist 21.8005
lhand -26.4109 11.2196
lfingers 7.12502
lthumb 0.14886 41.1993
rfemur -89.4518 -3.32532 31.8746
rtibia 77.7506
rfoot -25.0838 -13.4162
rtoes -4.65507
lfemur -92.8367 11.3985 -29.5061
ltibia 77.6936
lfoot -25.6282 15.5332
ltoes -0.851571
1686
root 10.3371 14.006 -4.68869 60.8288 -69.8788 -22.8338
lowerback 34.9084 -1.94367 2.74674
upperback 20.8904 -3.89312 -0.0754177
thorax 5.25937 -2.4374 -0.575268
lowerneck 1.1101 6.87015 0.904831
upperneck -13.1822 9.44589 -0.131082
head -4.49753 4.61432 -0.594928
rclavicle 4.6118e-014 3.18055e-014
rhumerus -8.96836 10.438 -77.55
rradius 71.5912
rwrist -7.29573
rhand -25.6746 -9.71489
rfingers 7.12502
rthumb 0.86003 -39.6929
lclavicle 4.6118e-014 3.18055e-014
lhumerus 55.3325 8.43785 43.7626
lradius 38.8312
lwrist 21.897
lhand -26.2618 11.2707
lfingers 7.12502
lthumb 0.292874 41.2503
rfemur -89.4994 -3.34345 31.8371
rtibia 77.7585
rfoot -25.0995 -13.4542
rtoes -4.64674
lfemur -92.8615 11.3404 -29.5344
ltibia 77.6697
lfoot -25.6024 15.5333
ltoes -0.867547
1687
root 10.3356 14.0071 -4.68712 60.7047 -69.8635 -22.6715
lowerback 34.9348 -1.9293 2.77431
upperback 20.8916 -3.86753 -0.0371823
thorax 5.25439 -2.42491 -0.555134
lowerneck 1.13179 6.85659 0.880729
upperneck -13.2169 9.43164 -0.0905577
head -4.51834 4.60528 -0.57914
rclavicle -2.70347e-014 -4.8901e-014
rhumerus -9.01804 10.3654 -77.49
rradius 71.625
rwrist -7.33048
rhand -25.729 -9.71098
rfingers 7.12502
rthumb 0.807458 -39.6892
lclavicle -2.70347e-014 -4.8901e-014
lhumerus 55.3882 8.48131 43.6736
lradius 38.8433
lwrist 21.9345
lhand -26.0819 11.3164
lfingers 7.12502
lthumb 0.466685 41.2956
rfemur -89.5316 -3.36928 31.7885
rtibia 77.7645
rfoot -25.1165 -13.4907
rtoes -4.63746
lfemur -92.8661 11.2824 -29.5733
ltibia 77.6393
lfoot -25.5745 15.5366
ltoes -0.899094
1688
root 10.3343 14.0089 -4.68513 60.5483 -69.8546 -22.4856
lowerback 34.9763 -1.91434 2.80192
upperback 20.8931 -3.84124 0.00170633
thorax 5.24479 -2.41233 -0.533891
lowerneck 1.15783 6.84443 0.857762
upperneck -13.2688 9.41932 -0.0552438
head -4.54597 4.59708 -0.566017
rclavicle 3.65764e-014 2.34566e-014
rhumerus -9.06581 10.2992 -77.4234
rradius 71.6503
rwrist -7.36286
rhand -25.7611 -9.71285
rfingers 7.12502
rthumb 0.776487 -39.6912
lclavicle 3.65764e-014 2.34566e-014
lhumerus 55.454 8.53843 43.5978
lradius 38.8508
lwrist 21.9114
lhand -25.8983 11.3293
lfingers 7.12502
lthumb 0.643929 41.3081
rfemur -89.553 -3.40745 31.7309
rtibia 77.7691
rfoot -25.1304 -13.5233
rtoes -4.63201
lfemur -92.8521 11.2229 -29.6241
ltibia 77.603
lfoot -25.5551 15.5309
ltoes -0.908644
1689
root 10.333 14.0109 -4.68285 60.3757 -69.8514 -22.2908
lowerback 35.0304 -1.89741 2.82894
upperback 20.8938 -3.81263 0.0410338
thorax 5.23009 -2.39888 -0.511916
lowerneck 1.1864 6.83406 0.832978
upperneck -13.3326 9.40967 -0.0204563
head -4.57862 4.59007 -0.553321
rclavicle 6.04305e-014 5.52621e-014
rhumerus -9.11428 10.2386 -77.3545
rradius 71.669
rwrist -7.39208
rhand -25.7663 -9.72046
rfingers 7.12502
rthumb 0.771461 -39.6988
lclavicle 6.04305e-014 5.52621e-014
lhumerus 55.5339 8.61064 43.5611
lradius 38.8454
lwrist 21.8169
lhand -25.7422 11.3058
lfingers 7.12502
lthumb 0.794755 41.2841
rfemur -89.5661 -3.45363 31.6691
rtibia 77.7736
rfoot -25.1425 -13.5485
rtoes -4.62887
lfemur -92.8246 11.1649 -29.6823
ltibia 77.5636
lfoot -25.5401 15.5248
ltoes -0.918733
1690
root 10.3317 14.0127 -4.68065 60.2106 -69.8581 -22.1035
lowerback 35.0829 -1.8742 2.84851
upperback 20.893 -3.77845 0.0796472
thorax 5.2146 -2.38336 -0.488315
lowerneck 1.21996 6.82604 0.805679
upperneck -13.404 9.40365 0.0158637
head -4.61531 4.58471 -0.540279
rclavicle 3.65764e-014 -2.98177e-014
rhumerus -9.16642 10.1859 -77.2858
rradius 71.6823
rwrist -7.41752
rhand -25.7722 -9.73053
rfingers 7.12502
rthumb 0.765753 -39.7089
lclavicle 3.65764e-014 -2.98177e-014
lhumerus 55.6335 8.69882 43.569
lradius 38.8165
lwrist 21.6642
lhand -25.6366 11.2494
lfingers 7.12502
lthumb 0.896769 41.2273
rfemur -89.5816 -3.49751 31.6045
rtibia 77.7819
rfoot -25.1516 -13.5678
rtoes -4.63246
lfemur -92.7976 11.1117 -29.7444
ltibia 77.5281
lfoot -25.5327 15.5182
ltoes -0.919147
1691
root 10.3302 14.0134 -4.67892 60.09 -69.876 -21.9503
lowerback 35.1161 -1.83913 2.85591
upperback 20.8898 -3.73336 0.118852
thorax 5.20329 -2.36349 -0.461406
lowerneck 1.25377 6.82141 0.777167
upperneck -13.4701 9.40237 0.0538107
head -4.65034 4.58176 -0.526526
rclavicle 1.27222e-014 -6.83819e-014
rhumerus -9.2223 10.1389 -77.2202
rradius 71.6871
rwrist -7.43658
rhand -25.7704 -9.74189
rfingers 7.12502
rthumb 0.767503 -39.7202
lclavicle 1.27222e-014 -6.83819e-014
lhumerus 55.7483 8.79603 43.6242
lradius 38.7633
lwrist 21.4703
lhand -25.615 11.1586
lfingers 7.12502
lthumb 0.917545 41.1364
rfemur -89.6155 -3.52358 31.5406
rtibia 77.7975
rfoot -25.159 -13.5842
rtoes -4.6389
lfemur -92.7924 11.0687 -29.8044
ltibia 77.5041
lfoot -25.533 15.5091
ltoes -0.899688
1692
root 10.3285 14.0125 -4.67779 60.0221 -69.9074 -21.8287
lowerback 35.1123 -1.79143 2.84713
upperback 20.884 -3.67746 0.157817
thorax 5.20198 -2.33934 -0.430659
lowerneck 1.28989 6.8205 0.750819
upperneck -13.5267 9.40585 0.0884138
head -4.68201 4.58142 -0.514235
rclavicle -4.13472e-014 -3.65764e-014
rhumerus -9.27936 10.1005 -77.1582
rradius 71.679
rwrist -7.44994
rhand -25.7683 -9.75228
rfingers 7.12502
rthumb 0.769512 -39.7306
lclavicle -4.13472e-014 -3.65764e-014
lhumerus 55.8738 8.89952 43.7225
lradius 38.6916
lwrist 21.2541
lhand -25.6762 11.0599
lfingers 7.12502
lthumb 0.858476 41.0379
rfemur -89.6818 -3.52789 31.476
rtibia 77.8239
rfoot -25.1645 -13.6002
rtoes -4.64912
lfemur -92.8246 11.0338 -29.8667
ltibia 77.4966
lfoot -25.5366 15.5036
ltoes -0.883057
1693
root 10.3265 14.01 -4.67734 60.0128 -69.9527 -21.7442
lowerback 35.0694 -1.73074 2.81974
upperback 20.8762 -3.61109 0.196492
thorax 5.21211 -2.31131 -0.394836
lowerneck 1.32007 6.82488 0.730537
upperneck -13.5629 9.41543 0.114325
head -4.70413 4.58475 -0.505196
rclavicle -3.33958e-014 -5.68524e-014
rhumerus -9.33342 10.075 -77.1002
rradius 71.6531
rwrist -7.45531
rhand -25.7691 -9.76136
rfingers 7.12502
rthumb 0.768758 -39.7397
lclavicle -3.33958e-014 -5.68524e-014
lhumerus 56.0004 9.00591 43.8438
lradius 38.6115
lwrist 21.0414
lhand -25.8063 10.9822
lfingers 7.12502
lthumb 0.732818 40.9607
rfemur -89.7814 -3.50743 31.4109
rtibia 77.8618
rfoot -25.1699 -13.6143
rtoes -4.65633
lfemur -92.8977 11.0096 -29.9314
ltibia 77.5074
lfoot -25.5415 15.5019
ltoes -0.86633
1694
root 10.3245 14.006 -4.67722 60.0444 -70.0089 -21.6811
lowerback 34.9924 -1.66348 2.77989
upperback 20.8666 -3.54006 0.23303
thorax 5.23181 -2.2815 -0.35724
lowerneck 1.34195 6.83423 0.715966
upperneck -13.5768 9.4303 0.129038
head -4.71533 4.59157 -0.499993
rclavicle -2.8625e-014 -7.55382e-014
rhumerus -9.37706 10.0601 -77.0481
rradius 71.6056
rwrist -7.45099
rhand -25.7591 -9.76602
rfingers 7.12502
rthumb 0.778377 -39.7443
lclavicle -2.8625e-014 -7.55382e-014
lhumerus 56.1211 9.1126 43.9747
lradius 38.5364
lwrist 20.8499
lhand -25.9801 10.9321
lfingers 7.12502
lthumb 0.564923 40.9111
rfemur -89.9117 -3.4717 31.3458
rtibia 77.9096
rfoot -25.1733 -13.6288
rtoes -4.66792
lfemur -93.0063 10.9913 -30.0036
ltibia 77.5323
lfoot -25.5442 15.5059
ltoes -0.864216
1695
root 10.3226 14.0015 -4.67692 60.0856 -70.0694 -21.6245
lowerback 34.9063 -1.59789 2.73906
upperback 20.8564 -3.47117 0.26561
thorax 5.25349 -2.25238 -0.322929
lowerneck 1.35482 6.84789 0.710969
upperneck -13.5708 9.44922 0.12814
head -4.71588 4.6013 -0.500714
rclavicle -5.08889e-014 2.82274e-014
rhumerus -9.40491 10.0581 -77.0017
rradius 71.5338
rwrist -7.44316
rhand -25.7359 -9.76708
rfingers 7.12502
rthumb 0.800866 -39.7453
lclavicle -5.08889e-014 2.82274e-014
lhumerus 56.2319 9.21635 44.0991
lradius 38.4739
lwrist 20.6843
lhand -26.1598 10.9211
lfingers 7.12502
lthumb 0.391376 40.9005
rfemur -90.0479 -3.43639 31.2812
rtibia 77.9622
rfoot -25.1859 -13.6236
rtoes -4.6314
lfemur -93.1245 10.9748 -30.0801
ltibia 77.5655
lfoot -25.5449 15.5168
ltoes -0.87685
1696
root 10.3209 13.9972 -4.67607 60.1135 -70.1271 -21.5599
lowerback 34.8242 -1.54116 2.70721
upperback 20.847 -3.41048 0.293319
thorax 5.27391 -2.22606 -0.296004
lowerneck 1.35769 6.86445 0.713493
upperneck -13.5483 9.47061 0.115265
head -4.70714 4.61297 -0.505791
rclavicle 4.92986e-014 5.725e-014
rhumerus -9.41142 10.0667 -76.9618
rradius 71.4379
rwrist -7.42924
rhand -25.6976 -9.76737
rfingers 7.12502
rthumb 0.83782 -39.7455
lclavicle 4.92986e-014 5.725e-014
lhumerus 56.3301 9.31359 44.197
lradius 38.4276
lwrist 20.5501
lhand -26.3202 10.9299
lfingers 7.12502
lthumb 0.236474 40.9095
rfemur -90.1795 -3.41439 31.2231
rtibia 78.0165
rfoot -25.1973 -13.6148
rtoes -4.60358
lfemur -93.2366 10.9556 -30.1597
ltibia 77.6002
lfoot -25.544 15.5319
ltoes -0.900908
1697
root 10.3195 13.993 -4.67472 60.1382 -70.1768 -21.4956
lowerback 34.7452 -1.49491 2.68958
upperback 20.8376 -3.35848 0.315807
thorax 5.29267 -2.20223 -0.279476
lowerneck 1.35331 6.88111 0.725471
upperneck -13.5164 9.49101 0.0913356
head -4.69229 4.62454 -0.515412
rclavicle 7.31528e-014 3.77691e-014
rhumerus -9.39627 10.0843 -76.9316
rradius 71.321
rwrist -7.41102
rhand -25.637 -9.77098
rfingers 7.12502
rthumb 0.896371 -39.7488
lclavicle 7.31528e-014 3.77691e-014
lhumerus 56.4141 9.39958 44.2698
lradius 38.3974
lwrist 20.4304
lhand -26.4409 10.9392
lfingers 7.12502
lthumb 0.119877 40.9189
rfemur -90.308 -3.40336 31.1763
rtibia 78.0701
rfoot -25.2077 -13.6026
rtoes -4.57942
lfemur -93.3466 10.9333 -30.2354
ltibia 77.6364
lfoot -25.5434 15.5452
ltoes -0.915829
1698
root 10.3183 13.9892 -4.67295 60.1551 -70.2196 -21.431
lowerback 34.675 -1.4586 2.68164
upperback 20.8289 -3.31581 0.332856
thorax 5.30846 -2.18173 -0.270883
lowerneck 1.3469 6.8966 0.743104
upperneck -13.485 9.50918 0.0597407
head -4.67644 4.63517 -0.528299
rclavicle 2.54444e-014 3.97569e-015
rhumerus -9.36223 10.1168 -76.9102
rradius 71.1905
rwrist -7.39116
rhand -25.5816 -9.77151
rfingers 7.12502
rthumb 0.949807 -39.7491
lclavicle 2.54444e-014 3.97569e-015
lhumerus 56.4859 9.4769 44.3136
lradius 38.3766
lwrist 20.3194
lhand -26.5129 10.9272
lfingers 7.12502
lthumb 0.0504151 40.907
rfemur -90.4271 -3.40302 31.1397
rtibia 78.1214
rfoot -25.2162 -13.59
rtoes -4.56611
lfemur -93.4473 10.9076 -30.305
ltibia 77.6725
lfoot -25.5452 15.5589
ltoes -0.92563
